<?xml version="1.0" standalone="no"?>
<!DOCTYPE svg PUBLIC "-//W3C//DTD SVG 20010904//EN"
 "http://www.w3.org/TR/2001/REC-SVG-20010904/DTD/svg10.dtd">
<svg version="1.0" xmlns="http://www.w3.org/2000/svg"
 width="598.000000pt" height="598.000000pt" viewBox="0 0 598.000000 598.000000"
 preserveAspectRatio="xMidYMid meet">
<metadata>
Created by potrace 1.16, written by Peter Selinger 2001-2019
</metadata>
<g transform="translate(0.000000,598.000000) scale(0.100000,-0.100000)"
fill="#000000" stroke="none">
<path d="M0 5456 l0 -236 40 0 c33 0 40 -3 40 -20 0 -17 -7 -20 -40 -20 l-40
0 0 -40 0 -40 40 0 c30 0 40 -4 40 -16 0 -14 2 -15 17 -3 15 13 15 14 0 17
-12 3 -17 14 -17 43 0 39 0 39 40 39 l40 0 0 -45 0 -45 80 0 c44 0 80 3 80 8
0 4 -18 6 -40 4 -32 -3 -40 -1 -40 12 0 9 7 16 15 16 8 0 17 11 21 25 4 16 13
25 25 25 17 0 19 9 19 105 l0 105 33 -1 c17 0 26 -3 20 -6 -7 -2 -13 -13 -13
-24 0 -18 9 -19 140 -19 l140 0 0 40 0 40 80 0 c73 0 80 2 80 20 0 19 7 20
160 20 153 0 160 1 160 20 0 18 7 20 80 20 l80 0 0 40 c0 36 -2 40 -25 40 -22
0 -25 4 -25 40 0 38 2 40 30 41 40 2 47 3 53 9 3 3 -148 6 -336 7 -188 1 -485
5 -659 9 l-318 6 0 -236z"/>
<path d="M5865 5645 c-5 -2 -120 -7 -255 -10 -293 -8 -378 -13 -472 -31 -27
-5 -45 -2 -62 10 -33 21 -36 20 -36 -9 0 -25 -1 -25 -80 -25 -64 0 -80 -3 -80
-15 0 -11 -11 -15 -40 -15 -27 0 -43 5 -46 15 -9 22 -34 18 -34 -5 0 -11 5
-20 10 -20 6 0 10 -9 10 -20 0 -24 -18 -26 -35 -4 -9 13 -21 15 -58 10 -26 -4
-47 -11 -47 -17 0 -5 -7 -9 -17 -9 -15 0 -15 -1 0 -18 10 -10 17 -24 17 -30 0
-15 31 -15 160 3 127 17 252 19 267 4 15 -15 33 -3 33 22 0 10 5 19 10 19 6 0
10 -7 10 -15 0 -12 16 -15 80 -15 64 0 80 -3 80 -15 0 -12 -16 -15 -80 -15
-47 0 -80 -4 -80 -10 0 -5 22 -10 49 -10 l48 0 7 -40 c4 -25 12 -40 20 -40 8
0 20 -13 28 -30 7 -16 19 -30 25 -30 18 0 16 19 -2 26 -8 4 -15 12 -15 19 0 7
-5 15 -12 17 -16 6 2 70 21 76 9 3 11 -2 7 -16 -11 -33 15 -38 40 -9 14 17 24
22 27 14 3 -9 8 -9 21 2 23 19 28 10 15 -28 -6 -18 -9 -34 -7 -36 3 -3 32 -8
66 -11 l62 -7 0 47 c0 33 4 46 14 46 16 0 29 27 20 41 -12 20 6 59 26 59 11 0
20 -4 20 -10 0 -5 9 -10 19 -10 12 0 21 -9 25 -25 4 -14 13 -25 21 -25 12 0
15 -15 15 -68 0 -60 -2 -68 -22 -77 -30 -13 -37 -45 -10 -45 18 0 19 -3 10
-40 -6 -22 -16 -40 -22 -40 -7 0 -22 18 -34 40 -11 22 -16 40 -10 40 7 0 6 5
-1 14 -14 17 -140 33 -150 19 -3 -5 -22 -14 -41 -19 -32 -9 -35 -13 -38 -52
l-3 -42 -120 0 c-118 0 -119 0 -119 -23 0 -40 -29 -57 -98 -57 l-62 0 0 -40 0
-40 176 0 177 0 -7 41 c-6 35 -4 40 11 37 10 -2 19 -13 21 -25 2 -13 17 -35
33 -50 31 -30 36 -52 17 -71 -9 -9 -8 -12 5 -12 13 0 17 -9 17 -40 0 -29 4
-40 15 -40 11 0 15 11 15 40 l0 40 50 0 c49 0 49 0 44 28 -7 35 19 62 44 45
27 -17 21 -56 -10 -71 -28 -13 -38 -45 -18 -57 13 -8 90 13 90 25 0 6 9 10 20
10 11 0 20 -4 20 -10 0 -5 10 -10 23 -10 13 0 29 -6 35 -12 9 -9 15 -10 20 -2
4 6 31 14 61 17 42 5 57 3 65 -9 9 -11 20 -13 51 -6 l40 8 3 56 c3 55 3 56
-28 63 -26 6 -30 11 -30 40 0 27 6 37 28 47 24 12 27 19 29 73 l3 60 -24 -28
-23 -29 -6 28 c-3 16 -3 52 0 81 5 42 9 53 24 53 14 0 19 -10 22 -42 2 -24 4
17 5 90 2 140 -1 149 -44 117 -10 -8 -29 -15 -41 -15 -24 0 -30 -19 -13 -36 8
-8 6 -15 -5 -24 -8 -7 -15 -20 -15 -30 0 -27 -9 -29 -56 -13 -40 14 -44 18
-44 48 0 27 5 36 29 46 17 8 36 24 42 37 8 13 19 20 27 17 37 -14 62 -16 62
-6 0 6 14 11 30 11 34 0 41 15 11 23 -16 4 -19 12 -16 41 3 32 0 36 -20 36
-13 0 -29 2 -37 4 -7 3 -17 3 -23 1z m-410 -465 c-6 -9 43 -60 57 -60 17 0 7
28 -12 33 -11 3 -20 9 -20 14 0 14 40 34 53 26 14 -9 19 -10 47 -12 16 -1 20
-8 20 -41 0 -35 -3 -40 -22 -41 l-23 0 23 -11 c35 -17 27 -37 -18 -44 -22 -4
-40 -10 -40 -15 0 -23 -28 -4 -50 34 l-25 42 -5 -40 c-4 -35 -9 -40 -32 -43
-27 -3 -28 -1 -28 37 0 30 4 41 15 41 8 0 15 7 15 15 0 9 -7 18 -15 21 -8 4
-15 15 -15 25 0 22 45 27 53 7 3 -7 6 -3 6 10 1 13 5 20 11 17 6 -4 8 -10 5
-15z"/>
<path d="M4436 5511 c-4 -5 -29 -7 -61 -4 -54 6 -55 5 -55 -21 0 -24 3 -26 40
-26 33 0 40 -3 40 -20 0 -12 -7 -20 -17 -20 -14 0 -14 -3 -5 -12 10 -10 15
-10 22 2 8 12 13 13 28 3 15 -9 22 -9 31 0 9 9 14 9 19 1 4 -7 15 -8 27 -3 17
7 18 8 2 8 -16 1 -16 4 5 41 13 22 30 41 38 44 8 2 -6 4 -32 5 -25 0 -53 4
-61 7 -8 3 -18 1 -21 -5z"/>
<path d="M3650 5379 c0 -9 -29 -20 -69 -25 -40 -5 -77 -23 -48 -24 9 0 17 -5
17 -11 0 -6 -7 -9 -15 -5 -9 3 -15 0 -15 -9 0 -11 8 -13 30 -9 22 5 31 2 36
-10 3 -9 12 -16 20 -16 8 0 14 -9 14 -21 0 -11 4 -18 10 -14 13 8 42 -39 35
-56 -4 -10 3 -15 22 -16 16 0 20 1 11 4 -9 2 -20 17 -23 34 -4 16 -13 36 -22
44 -13 13 -13 15 0 15 9 0 18 -6 20 -12 3 -7 6 -1 6 13 1 19 6 26 18 25 21 -1
30 33 11 45 -8 6 4 9 34 9 26 0 50 5 53 10 3 6 19 10 35 10 16 0 32 -4 35 -10
3 -5 43 -10 88 -10 62 0 78 3 69 12 -7 7 -36 11 -72 9 -34 -1 -67 2 -73 7 -14
11 -227 21 -227 11z"/>
<path d="M2428 5253 c-24 -32 -45 -62 -48 -68 -3 -5 -26 -43 -53 -83 -26 -40
-47 -77 -47 -82 0 -20 -34 -80 -46 -80 -6 0 -16 -21 -22 -47 -12 -57 -42 -156
-70 -233 -33 -90 -84 -253 -88 -281 -2 -15 -10 -60 -18 -100 -19 -91 -55 -316
-68 -424 -5 -44 -12 -181 -16 -305 l-7 -225 -99 -3 c-62 -2 -103 1 -112 8 -7
7 -17 9 -22 6 -5 -3 -86 -8 -180 -11 -128 -4 -172 -3 -172 6 0 9 -28 10 -107
5 -267 -17 -355 -18 -379 -6 -25 14 -200 9 -238 -6 -12 -5 -17 -4 -13 3 4 6
-8 9 -31 8 -77 -5 -132 -5 -289 1 -106 4 -172 3 -192 -4 -19 -7 -31 -7 -31 -1
0 5 -18 9 -40 9 l-40 0 0 -1231 0 -1231 138 6 c155 8 318 22 407 36 33 5 98
14 145 21 83 11 329 51 420 69 25 4 82 15 127 23 45 9 105 23 134 31 68 21 66
21 74 -17 48 -246 123 -509 158 -555 6 -7 14 -9 19 -4 4 4 -6 46 -23 93 -81
219 -149 557 -194 960 -6 55 -5 56 42 118 122 161 176 239 224 324 106 186
298 578 354 721 l57 147 -21 77 c-96 353 -97 654 -5 1227 54 331 131 579 260
838 66 131 175 289 189 275 4 -3 -21 -84 -54 -179 -107 -306 -187 -625 -233
-919 -17 -108 -21 -185 -22 -390 -1 -240 1 -264 28 -410 40 -219 31 -204 124
-196 191 16 292 30 292 41 0 7 -12 18 -27 25 l-28 13 40 8 c22 4 95 8 163 9
129 2 151 10 112 42 -22 18 -22 18 46 19 181 4 314 0 331 -10 12 -6 180 -14
419 -21 430 -11 721 -25 849 -40 44 -5 125 -14 180 -21 55 -6 131 -20 168 -31
65 -18 69 -21 87 -63 10 -24 31 -95 46 -157 14 -62 37 -154 50 -204 35 -135
36 -132 -38 -122 -76 9 -440 38 -485 38 -18 0 -33 -4 -33 -9 0 -11 53 -19 230
-31 323 -23 690 -78 848 -127 86 -26 113 -48 40 -31 -24 5 -86 10 -140 10
-139 -1 -179 -26 -163 -105 11 -50 50 -111 103 -158 72 -65 94 -75 139 -61 38
11 113 74 146 122 17 25 17 24 11 -30 -4 -30 -11 -66 -16 -80 -5 -13 -16 -55
-24 -93 -8 -38 -37 -122 -65 -187 -54 -125 -185 -373 -226 -427 -24 -31 -27
-32 -39 -16 -11 16 -28 18 -126 17 -78 -1 -126 -6 -157 -18 -56 -21 -199 -21
-301 -1 -109 22 -403 30 -520 15 -52 -7 -103 -12 -112 -12 -16 1 -45 -25 -37
-32 2 -2 33 3 69 11 103 24 401 28 535 8 186 -28 267 -29 379 -6 107 23 209
27 251 11 22 -9 26 -15 21 -35 -4 -16 6 -57 28 -117 19 -51 53 -148 76 -215
l42 -122 -31 -88 c-17 -48 -67 -189 -111 -313 -103 -287 -180 -528 -180 -563
0 -28 29 -19 36 11 3 15 12 45 20 67 8 23 14 48 14 57 0 9 14 56 31 105 17 48
32 95 33 103 1 9 6 21 10 29 9 14 118 324 171 487 35 108 35 139 1 219 -8 16
-26 66 -40 110 -15 44 -31 89 -36 100 -6 11 -17 40 -25 63 -14 42 -14 45 12
90 15 26 39 63 55 83 15 20 28 40 28 43 0 4 12 25 27 49 37 57 73 129 73 145
0 6 4 12 9 12 5 0 16 19 24 43 9 23 22 60 30 82 17 44 29 48 37 13 3 -13 15
-24 25 -26 19 -3 19 -2 3 11 -19 15 -24 47 -8 47 6 0 10 -4 10 -10 0 -5 5 -10
10 -10 14 0 13 16 -2 32 -17 17 -21 75 -7 84 6 4 10 -1 8 -12 -2 -11 1 -29 5
-41 7 -21 13 -23 92 -23 56 0 84 -4 84 -11 0 -8 -13 -9 -40 -5 -34 5 -40 4
-40 -11 -1 -21 -44 -73 -60 -73 -17 0 -40 -26 -40 -44 0 -20 2 -20 55 7 26 13
45 29 45 39 0 31 51 57 98 51 l42 -6 0 696 0 697 -23 5 c-13 4 -27 5 -33 4 -5
-1 -17 1 -27 6 -9 4 -23 3 -30 -1 -15 -11 -398 -10 -449 0 -32 7 -38 6 -38 -8
0 -16 -2 -16 -22 -2 -26 19 -69 21 -85 5 -8 -8 -38 -8 -108 0 -68 7 -104 7
-117 0 -14 -8 -28 -7 -48 1 -42 17 -88 5 -86 -23 1 -17 7 -22 28 -22 22 1 25
-2 17 -16 -6 -12 -5 -19 4 -22 6 -3 2 -6 -10 -6 -13 -1 -23 2 -23 7 0 4 -10
12 -22 17 -15 6 -24 21 -26 38 -3 22 -8 27 -25 25 -22 -3 -22 -2 -19 142 9
348 9 458 2 665 -5 121 -11 238 -14 260 -19 148 -27 230 -36 379 -6 93 -7 172
-3 175 13 9 14 90 2 112 -8 16 -13 18 -25 8 -13 -11 -18 -4 -16 21 0 3 -24 6
-54 6 -30 1 -52 -1 -49 -4 7 -7 -88 -51 -97 -46 -4 3 -4 12 -1 20 4 11 13 14
29 10 18 -5 24 -2 25 11 0 10 3 38 5 62 4 37 2 42 -12 37 -8 -3 -29 -6 -45 -6
-22 0 -29 -5 -29 -19 0 -10 7 -22 16 -25 22 -8 22 -8 27 12 4 14 5 14 6 -3 1
-17 3 -18 11 -5 8 12 10 10 10 -8 0 -13 -4 -20 -10 -17 -5 3 -10 2 -10 -4 0
-5 6 -12 13 -14 7 -3 5 -6 -5 -6 -10 -1 -18 5 -18 13 0 8 -7 17 -16 20 -25 9
-27 7 -9 -10 14 -15 14 -18 0 -33 -18 -21 -19 -38 -2 -44 13 -4 -30 -46 -48
-47 -5 0 -4 4 3 9 11 7 10 10 -3 15 -22 8 -27 8 -21 -3 3 -5 -7 -14 -23 -21
-30 -12 -50 -60 -25 -60 7 0 14 10 16 23 2 15 11 23 28 26 l25 3 -20 -22 c-11
-13 -38 -36 -60 -52 -41 -30 -59 -52 -142 -175 -26 -39 -53 -72 -58 -72 -6 -1
-28 32 -48 72 -44 82 -60 110 -68 117 -8 7 -22 44 -21 53 1 4 -4 7 -12 7 -7 0
-19 7 -26 15 -10 12 -10 18 0 30 10 12 15 13 20 4 12 -19 31 1 30 29 -1 15 -2
46 -1 70 l1 42 40 0 c33 0 40 3 40 20 0 17 -7 20 -40 20 -34 0 -40 -3 -40 -21
0 -18 -5 -20 -60 -18 -32 1 -57 6 -54 11 8 12 -25 48 -43 48 -7 0 -13 5 -13
10 0 16 -27 11 -34 -6 -13 -34 -6 -60 23 -77 33 -19 45 -22 36 -7 -4 6 7 10
27 10 28 0 33 -4 34 -25 2 -22 -1 -24 -25 -18 -14 4 -36 7 -48 6 -12 0 -21 4
-20 11 1 6 -8 10 -22 8 -16 -3 -21 0 -16 8 5 9 1 10 -15 5 -12 -4 -20 -3 -17
1 3 5 -10 10 -28 11 -18 2 -45 10 -61 18 -16 8 -39 15 -51 15 -21 0 -44 28
-49 58 -1 8 -10 22 -18 31 -9 10 -16 21 -16 26 0 12 -33 34 -53 35 -21 0 -57
-19 -73 -39 -9 -12 -13 -11 -22 5 -10 16 -11 14 -6 -14 5 -24 2 -38 -12 -54
-11 -12 -13 -18 -6 -14 8 5 12 1 12 -12 0 -15 -9 -21 -37 -26 -62 -10 -67 -11
-143 -43 -8 -3 -21 -5 -27 -4 -7 1 -13 -4 -13 -11 0 -8 -5 -5 -11 5 -8 14 -14
16 -25 6 -7 -6 -25 -8 -39 -5 -14 4 -25 2 -25 -4 0 -5 11 -12 24 -16 32 -8 23
-34 -11 -34 -15 0 -22 -4 -18 -11 4 -6 -3 -5 -15 3 -18 11 -21 20 -17 51 4 32
2 37 -15 37 -18 0 -19 -4 -14 -36 5 -25 2 -43 -9 -61 -15 -23 -18 -23 -34 -9
-10 9 -23 16 -30 16 -7 0 -10 3 -8 8 4 6 -34 7 -117 3 -20 -1 -20 -1 0 -15 19
-15 19 -15 -1 -30 -17 -12 -18 -16 -5 -21 18 -7 25 -56 9 -65 -6 -4 8 -10 31
-14 23 -3 45 -4 51 -1 5 4 9 1 9 -4 0 -6 -3 -11 -8 -11 -4 0 -18 -18 -32 -40
-14 -22 -27 -40 -30 -40 -10 0 -60 121 -60 145 0 13 -8 28 -17 34 -17 9 -17
10 0 16 21 9 23 35 2 35 -13 0 -16 5 -15 25 1 7 -27 35 -35 35 -3 0 2 -11 11
-25 9 -14 14 -29 10 -32 -10 -11 -46 35 -40 50 3 9 -4 22 -17 30 l-22 16 26 6
c33 9 59 3 65 -13 2 -8 -2 -10 -13 -6 -15 6 -15 4 -4 -14 10 -16 16 -18 26
-10 16 13 16 27 1 61 -11 22 -20 27 -50 27 -26 0 -38 -4 -38 -14 0 -8 -7 -13
-16 -12 -19 3 -64 51 -64 68 0 7 -24 34 -52 60 -76 68 -103 67 -160 -9z m176
-72 c196 -245 339 -575 511 -1176 69 -243 148 -633 129 -636 -5 -1 -92 -3
-194 -4 -193 -2 -280 -10 -280 -27 0 -5 9 -12 21 -15 35 -10 0 -23 -61 -23
-30 0 -92 -3 -138 -7 -68 -5 -82 -9 -80 -22 2 -8 14 -21 27 -28 l25 -12 -25
-5 c-13 -3 -71 -10 -128 -16 -83 -8 -107 -8 -116 2 -14 16 -49 210 -66 364
-24 213 9 586 80 912 55 251 213 762 236 762 2 0 29 -31 59 -69z m2038 -218
c-101 -129 -292 -431 -292 -461 0 -7 -4 -12 -10 -12 -5 0 -10 15 -10 33 0 43
-29 71 -65 65 -18 -4 -29 0 -35 13 -30 55 287 384 422 439 60 24 58 10 -10
-77z m99 -89 c10 -65 22 -184 28 -264 7 -80 16 -204 22 -276 19 -238 9 -1048
-13 -1070 -3 -2 -27 0 -55 5 -27 6 -106 15 -174 20 -68 6 -143 14 -166 17
l-43 6 0 558 0 557 51 94 c124 226 299 484 323 476 6 -2 18 -57 27 -123z
m-440 -410 c10 -133 10 -1142 1 -1148 -5 -3 -18 -2 -30 1 l-22 5 6 607 c3 333
8 612 10 619 2 8 10 12 17 10 8 -3 14 -36 18 -94z m-952 64 c8 -22 25 -463 38
-961 l6 -229 -24 4 -24 3 -6 250 c-4 138 -12 402 -19 588 -6 186 -9 345 -6
353 8 21 25 17 35 -8z m591 -48 c85 -5 186 -12 224 -16 l68 -7 -6 -496 c-3
-273 -9 -529 -12 -570 l-6 -74 -162 7 c-88 4 -262 9 -386 12 -124 3 -228 9
-231 12 -4 4 -12 192 -18 417 -7 226 -15 478 -18 562 l-6 152 34 4 c67 8 367
6 519 -3z m-656 -172 c26 -611 32 -958 16 -958 -12 0 -18 25 -68 280 -48 242
-83 381 -147 585 -26 83 -48 157 -49 165 -1 9 32 26 99 51 154 57 141 68 149
-123z"/>
<path d="M3785 4168 c-55 -32 -90 -96 -105 -194 -14 -88 -5 -154 31 -229 66
-139 184 -140 253 -2 23 46 30 75 34 145 6 118 -13 186 -72 247 -36 39 -48 45
-82 45 -21 0 -48 -6 -59 -12z"/>
<path d="M3491 2992 c-23 -8 2 -22 38 -22 l38 0 5 -74 c8 -116 59 -168 116
-116 22 20 30 52 34 130 3 37 7 45 26 50 48 11 25 25 -43 27 -38 2 -100 4
-137 6 -36 1 -71 1 -77 -1z"/>
<path d="M4496 2961 c5 -6 32 -11 59 -13 l50 -3 7 -79 c7 -78 16 -99 49 -117
45 -24 79 30 79 126 0 49 4 67 15 71 42 16 1 24 -127 24 -89 0 -138 -4 -132
-9z"/>
</g>
</svg>
